<svg width="89" height="23" viewBox="0 0 89 23" fill="none" xmlns="http://www.w3.org/2000/svg">
<path fill-rule="evenodd" clip-rule="evenodd" d="M10.9796 0.47111C11.6078 -0.157037 12.6262 -0.157037 13.2543 0.47111L19.1364 6.35333L13.2276 11.9937C12.585 12.6071 11.5669 12.5834 10.9535 11.9408C10.3401 11.2983 10.3638 10.2801 11.0064 9.66677L12.8206 7.93502H8.90007C5.76134 7.93502 3.21687 10.4795 3.21687 13.6182C3.21687 16.7569 5.76134 19.3014 8.90007 19.3014H16.8351C17.7233 19.3014 18.4437 20.0215 18.4437 20.91C18.4437 21.7981 17.7233 22.5182 16.8351 22.5182H8.90007C3.98468 22.5182 0 18.5336 0 13.6182C0 8.70283 3.98468 4.71812 8.90007 4.71812H12.952L10.9796 2.74581C10.3515 2.11767 10.3515 1.09926 10.9796 0.47111Z" fill="#1F8459"/>
<path d="M31.3077 10.4442C31.6409 9.91007 32.0729 9.49126 32.6036 9.18777C33.1467 8.88428 33.7638 8.73253 34.455 8.73253V11.4093H33.77C32.9554 11.4093 32.3383 11.5975 31.9186 11.9738C31.5113 12.3501 31.3077 13.0057 31.3077 13.9404V18.9662H28.7158V8.87821H31.3077V10.4442Z" fill="#1F8459"/>
<path d="M45.7353 13.7037C45.7353 14.0679 45.7106 14.3956 45.6613 14.687H38.1632C38.2249 15.4154 38.4841 15.9859 38.9408 16.3987C39.3975 16.8114 39.9591 17.0178 40.6255 17.0178C41.5883 17.0178 42.2733 16.6111 42.6806 15.7978H45.4761C45.1799 16.7689 44.6122 17.5702 43.7729 18.2014C42.9336 18.8205 41.903 19.1301 40.6811 19.1301C39.6937 19.1301 38.805 18.9176 38.0151 18.4928C37.2375 18.0557 36.6266 17.4427 36.1823 16.6536C35.7503 15.8645 35.5343 14.9541 35.5343 13.9222C35.5343 12.8782 35.7503 11.9617 36.1823 11.1726C36.6143 10.3835 37.219 9.77654 37.9966 9.35165C38.7742 8.92676 39.669 8.71432 40.6811 8.71432C41.6561 8.71432 42.5263 8.92069 43.2915 9.33344C44.0691 9.74619 44.6677 10.335 45.0873 11.0998C45.5193 11.8524 45.7353 12.7204 45.7353 13.7037ZM43.0508 12.9753C43.0385 12.3198 42.7978 11.7978 42.3288 11.4093C41.8598 11.0087 41.2859 10.8084 40.607 10.8084C39.9652 10.8084 39.4222 11.0026 38.9778 11.3911C38.5458 11.7674 38.2805 12.2955 38.1817 12.9753H43.0508Z" fill="#1F8459"/>
<path d="M52.3297 10.9723H50.5338V18.9662H47.9049V10.9723H46.7385V8.87821H47.9049V8.36834C47.9049 7.13011 48.2628 6.21964 48.9787 5.63694C49.6945 5.05424 50.7745 4.78109 52.2186 4.81751V6.96622C51.5891 6.95408 51.151 7.05727 50.9041 7.27578C50.6573 7.49429 50.5338 7.88883 50.5338 8.45939V8.87821H52.3297V10.9723Z" fill="#1F8459"/>
<path d="M63.692 8.87821V18.9662H61.0816V17.6915C60.7483 18.1286 60.3102 18.4746 59.7671 18.7295C59.2364 18.9723 58.6563 19.0937 58.0268 19.0937C57.2246 19.0937 56.5149 18.9298 55.8977 18.602C55.2806 18.2621 54.7931 17.7705 54.4352 17.1271C54.0896 16.4715 53.9168 15.6946 53.9168 14.7963V8.87821H56.5087V14.4321C56.5087 15.2333 56.7123 15.8524 57.1196 16.2894C57.5269 16.7143 58.0823 16.9268 58.7859 16.9268C59.5017 16.9268 60.0633 16.7143 60.4706 16.2894C60.8779 15.8524 61.0816 15.2333 61.0816 14.4321V8.87821H63.692Z" fill="#1F8459"/>
<path d="M71.933 8.73253C73.1549 8.73253 74.1423 9.11493 74.8952 9.87972C75.6481 10.6324 76.0246 11.6885 76.0246 13.0482V18.9662H73.4326V13.3941C73.4326 12.5929 73.229 11.9799 72.8217 11.555C72.4144 11.118 71.859 10.8994 71.1555 10.8994C70.4396 10.8994 69.8718 11.118 69.4522 11.555C69.0449 11.9799 68.8413 12.5929 68.8413 13.3941V18.9662H66.2493V8.87821H68.8413V10.1347C69.1868 9.69763 69.625 9.35772 70.1557 9.11493C70.6988 8.86 71.2912 8.73253 71.933 8.73253Z" fill="#1F8459"/>
<path d="M77.8228 13.8858C77.8228 12.8661 78.0265 11.9617 78.4338 11.1726C78.8534 10.3835 79.4212 9.77654 80.1371 9.35165C80.8529 8.92676 81.649 8.71432 82.5253 8.71432C83.1918 8.71432 83.8274 8.86 84.4322 9.15135C85.037 9.43056 85.5184 9.80688 85.8763 10.2803V5.49126H88.5052V18.9662H85.8763V17.473C85.5554 17.9708 85.1049 18.3714 84.5248 18.6749C83.9447 18.9783 83.272 19.1301 82.5068 19.1301C81.6428 19.1301 80.8529 18.9116 80.1371 18.4746C79.4212 18.0375 78.8534 17.4245 78.4338 16.6354C78.0265 15.8342 77.8228 14.9177 77.8228 13.8858ZM85.8948 13.9222C85.8948 13.3031 85.7714 12.775 85.5245 12.338C85.2777 11.8888 84.9444 11.5489 84.5248 11.3183C84.1051 11.0755 83.6547 10.9541 83.1733 10.9541C82.6919 10.9541 82.2476 11.0694 81.8403 11.3001C81.433 11.5307 81.0998 11.8706 80.8406 12.3198C80.5937 12.7568 80.4703 13.2788 80.4703 13.8858C80.4703 14.4928 80.5937 15.0269 80.8406 15.4882C81.0998 15.9374 81.433 16.2834 81.8403 16.5261C82.26 16.7689 82.7043 16.8903 83.1733 16.8903C83.6547 16.8903 84.1051 16.775 84.5248 16.5444C84.9444 16.3016 85.2777 15.9617 85.5245 15.5246C85.7714 15.0755 85.8948 14.5413 85.8948 13.9222Z" fill="#1F8459"/>
</svg>
