<svg width="32" height="32" viewBox="0 0 32 32" fill="none" xmlns="http://www.w3.org/2000/svg">
<path d="M22.2925 20.7075L20 18.4137V26C20 26.2652 19.8947 26.5196 19.7071 26.7071C19.5196 26.8946 19.2652 27 19 27C18.7348 27 18.4804 26.8946 18.2929 26.7071C18.1054 26.5196 18 26.2652 18 26V18.4137L15.7075 20.7075C15.6146 20.8004 15.5043 20.8741 15.3829 20.9244C15.2615 20.9747 15.1314 21.0006 15 21.0006C14.8686 21.0006 14.7385 20.9747 14.6171 20.9244C14.4957 20.8741 14.3854 20.8004 14.2925 20.7075C14.1996 20.6146 14.1259 20.5043 14.0756 20.3829C14.0253 20.2615 13.9995 20.1314 13.9995 20C13.9995 19.8686 14.0253 19.7385 14.0756 19.6171C14.1259 19.4957 14.1996 19.3854 14.2925 19.2925L18.2925 15.2925C18.3854 15.1995 18.4957 15.1258 18.6171 15.0754C18.7385 15.0251 18.8686 14.9992 19 14.9992C19.1314 14.9992 19.2615 15.0251 19.3829 15.0754C19.5043 15.1258 19.6146 15.1995 19.7075 15.2925L23.7075 19.2925C23.8004 19.3854 23.8741 19.4957 23.9244 19.6171C23.9747 19.7385 24.0006 19.8686 24.0006 20C24.0006 20.1314 23.9747 20.2615 23.9244 20.3829C23.8741 20.5043 23.8004 20.6146 23.7075 20.7075C23.6146 20.8004 23.5043 20.8741 23.3829 20.9244C23.2615 20.9747 23.1314 21.0006 23 21.0006C22.8686 21.0006 22.7385 20.9747 22.6171 20.9244C22.4957 20.8741 22.3854 20.8004 22.2925 20.7075ZM20 5C17.957 5.00154 15.9546 5.57152 14.217 6.64617C12.4795 7.72082 11.0752 9.25775 10.1613 11.085C9.07316 10.9251 7.96378 10.9913 6.90241 11.2794C5.84104 11.5675 4.85047 12.0714 3.99257 12.7595C3.13467 13.4476 2.42787 14.3053 1.91631 15.2788C1.40475 16.2524 1.09941 17.321 1.01938 18.4178C0.939347 19.5147 1.08633 20.6163 1.45115 21.6538C1.81598 22.6913 2.3908 23.6424 3.13972 24.4478C3.88865 25.2532 4.79559 25.8955 5.8039 26.3346C6.8122 26.7737 7.90023 27.0003 9.00001 27H14C14.2652 27 14.5196 26.8946 14.7071 26.7071C14.8946 26.5196 15 26.2652 15 26C15 25.7348 14.8946 25.4804 14.7071 25.2929C14.5196 25.1054 14.2652 25 14 25H9.00001C7.40871 25 5.88258 24.3679 4.75737 23.2426C3.63215 22.1174 3.00001 20.5913 3.00001 19C3.00001 17.4087 3.63215 15.8826 4.75737 14.7574C5.88258 13.6321 7.40871 13 9.00001 13C9.13751 13 9.27501 13 9.41126 13.015C9.1379 13.9864 8.99952 14.9908 9.00001 16C9.00001 16.2652 9.10536 16.5196 9.2929 16.7071C9.48044 16.8946 9.73479 17 10 17C10.2652 17 10.5196 16.8946 10.7071 16.7071C10.8946 16.5196 11 16.2652 11 16C11.0003 14.3774 11.4391 12.7851 12.2702 11.3916C13.1013 9.99803 14.2936 8.85506 15.721 8.08363C17.1485 7.31221 18.7579 6.94102 20.379 7.00935C22.0001 7.07768 23.5726 7.58299 24.9301 8.4718C26.2875 9.36061 27.3795 10.5999 28.0903 12.0584C28.8012 13.517 29.1045 15.1405 28.9682 16.7574C28.8319 18.3742 28.2611 19.9241 27.3161 21.243C26.3711 22.562 25.0871 23.601 23.6 24.25C23.3888 24.3415 23.2157 24.5031 23.1098 24.7075C23.004 24.9118 22.9718 25.1464 23.0188 25.3717C23.0658 25.597 23.1891 25.7992 23.3678 25.9442C23.5466 26.0891 23.7699 26.168 24 26.1675C24.1378 26.1674 24.2741 26.1384 24.4 26.0825C26.7167 25.0719 28.6147 23.2944 29.7748 21.0489C30.9349 18.8034 31.2863 16.2269 30.7699 13.7527C30.2535 11.2785 28.9009 9.05762 26.9395 7.46358C24.978 5.86953 22.5275 4.99956 20 5Z" />
</svg>
